<svg width="47" height="10" viewBox="0 0 47 10" fill="none" xmlns="http://www.w3.org/2000/svg">
<path d="M0.48 9V7.752L5.256 1.092L5.7 1.776H0.648V0.36H7.14V1.608L2.436 8.184L2.016 7.584H7.188V9H0.48ZM9.89531 9.12C9.46331 9.12 9.09131 9.028 8.77931 8.844C8.47531 8.652 8.24331 8.4 8.08331 8.088C7.92331 7.768 7.84331 7.412 7.84331 7.02V2.88H9.64331V6.672C9.64331 7.008 9.72731 7.26 9.89531 7.428C10.0633 7.596 10.2993 7.68 10.6033 7.68C10.8753 7.68 11.1153 7.616 11.3233 7.488C11.5313 7.36 11.6953 7.184 11.8153 6.96C11.9433 6.728 12.0073 6.464 12.0073 6.168L12.1633 7.644C11.9633 8.084 11.6713 8.44 11.2873 8.712C10.9033 8.984 10.4393 9.12 9.89531 9.12ZM12.0433 9V7.56H12.0073V2.88H13.8073V9H12.0433ZM17.6412 9.12C16.7452 9.12 16.0332 8.94 15.5052 8.58C14.9772 8.22 14.6892 7.724 14.6412 7.092H16.2492C16.2892 7.364 16.4252 7.572 16.6572 7.716C16.8972 7.852 17.2252 7.92 17.6412 7.92C18.0172 7.92 18.2892 7.868 18.4572 7.764C18.6332 7.652 18.7212 7.496 18.7212 7.296C18.7212 7.144 18.6692 7.028 18.5652 6.948C18.4692 6.86 18.2892 6.788 18.0252 6.732L17.0412 6.528C16.3132 6.376 15.7772 6.148 15.4332 5.844C15.0892 5.532 14.9172 5.132 14.9172 4.644C14.9172 4.052 15.1452 3.592 15.6012 3.264C16.0572 2.928 16.6932 2.76 17.5092 2.76C18.3172 2.76 18.9612 2.924 19.4412 3.252C19.9212 3.572 20.1852 4.02 20.2332 4.596H18.6252C18.5932 4.388 18.4812 4.232 18.2892 4.128C18.0972 4.016 17.8252 3.96 17.4732 3.96C17.1532 3.96 16.9132 4.008 16.7532 4.104C16.6012 4.192 16.5252 4.32 16.5252 4.488C16.5252 4.632 16.5892 4.748 16.7172 4.836C16.8452 4.916 17.0572 4.988 17.3532 5.052L18.4572 5.28C19.0732 5.408 19.5372 5.648 19.8492 6C20.1692 6.344 20.3292 6.752 20.3292 7.224C20.3292 7.824 20.0932 8.292 19.6212 8.628C19.1572 8.956 18.4972 9.12 17.6412 9.12ZM24.0967 9.132C23.3127 9.132 22.7287 8.944 22.3447 8.568C21.9687 8.184 21.7807 7.604 21.7807 6.828V1.512L23.5807 0.84V6.888C23.5807 7.16 23.6567 7.364 23.8087 7.5C23.9607 7.636 24.1967 7.704 24.5167 7.704C24.6367 7.704 24.7487 7.692 24.8527 7.668C24.9567 7.644 25.0607 7.616 25.1647 7.584V8.952C25.0607 9.008 24.9127 9.052 24.7207 9.084C24.5367 9.116 24.3287 9.132 24.0967 9.132ZM20.6407 4.248V2.88H25.1647V4.248H20.6407ZM29.9783 9C29.9303 8.824 29.8943 8.636 29.8703 8.436C29.8543 8.236 29.8463 8.004 29.8463 7.74H29.7983V4.848C29.7983 4.6 29.7143 4.408 29.5463 4.272C29.3863 4.128 29.1463 4.056 28.8263 4.056C28.5223 4.056 28.2783 4.108 28.0943 4.212C27.9183 4.316 27.8023 4.468 27.7463 4.668H26.0303C26.1103 4.116 26.3943 3.66 26.8823 3.3C27.3703 2.94 28.0383 2.76 28.8863 2.76C29.7663 2.76 30.4383 2.956 30.9023 3.348C31.3663 3.74 31.5983 4.304 31.5983 5.04V7.74C31.5983 7.94 31.6103 8.144 31.6343 8.352C31.6663 8.552 31.7143 8.768 31.7783 9H29.9783ZM27.8423 9.12C27.2343 9.12 26.7503 8.968 26.3903 8.664C26.0303 8.352 25.8503 7.94 25.8503 7.428C25.8503 6.86 26.0623 6.404 26.4863 6.06C26.9183 5.708 27.5183 5.48 28.2863 5.376L30.0743 5.124V6.168L28.5863 6.396C28.2663 6.444 28.0303 6.532 27.8783 6.66C27.7263 6.788 27.6503 6.964 27.6503 7.188C27.6503 7.388 27.7223 7.54 27.8663 7.644C28.0103 7.748 28.2023 7.8 28.4423 7.8C28.8183 7.8 29.1383 7.7 29.4023 7.5C29.6663 7.292 29.7983 7.052 29.7983 6.78L29.9663 7.74C29.7903 8.196 29.5223 8.54 29.1623 8.772C28.8023 9.004 28.3623 9.12 27.8423 9.12ZM32.9817 9V2.88H34.7457V4.32H34.7817V9H32.9817ZM37.2417 9V5.208C37.2417 4.872 37.1537 4.62 36.9777 4.452C36.8097 4.284 36.5617 4.2 36.2337 4.2C35.9537 4.2 35.7017 4.264 35.4777 4.392C35.2617 4.52 35.0897 4.696 34.9617 4.92C34.8417 5.144 34.7817 5.408 34.7817 5.712L34.6257 4.236C34.8257 3.788 35.1177 3.432 35.5017 3.168C35.8937 2.896 36.3737 2.76 36.9417 2.76C37.6217 2.76 38.1417 2.952 38.5017 3.336C38.8617 3.712 39.0417 4.22 39.0417 4.86V9H37.2417ZM44.7434 9V7.644L44.8634 7.668C44.7834 8.108 44.5434 8.46 44.1434 8.724C43.7514 8.988 43.2794 9.12 42.7274 9.12C42.1674 9.12 41.6794 8.992 41.2634 8.736C40.8554 8.472 40.5394 8.104 40.3154 7.632C40.0914 7.16 39.9794 6.604 39.9794 5.964C39.9794 5.316 40.0954 4.752 40.3274 4.272C40.5594 3.792 40.8834 3.42 41.2994 3.156C41.7234 2.892 42.2154 2.76 42.7754 2.76C43.3594 2.76 43.8314 2.896 44.1914 3.168C44.5594 3.44 44.7754 3.812 44.8394 4.284L44.7074 4.296V0.36H46.5074V9H44.7434ZM43.3034 7.68C43.7274 7.68 44.0714 7.532 44.3354 7.236C44.5994 6.932 44.7314 6.5 44.7314 5.94C44.7314 5.38 44.5954 4.952 44.3234 4.656C44.0594 4.352 43.7114 4.2 43.2794 4.2C42.8634 4.2 42.5194 4.352 42.2474 4.656C41.9834 4.96 41.8514 5.392 41.8514 5.952C41.8514 6.512 41.9834 6.94 42.2474 7.236C42.5194 7.532 42.8714 7.68 43.3034 7.68Z" fill="black"/>
</svg>
